<svg height="73" viewBox="0 0 73 73" width="73" xmlns="http://www.w3.org/2000/svg"><g fill="none" fill-rule="nonzero"><rect fill="#fff" height="71" rx="14" stroke="#5c0d06" stroke-width="2" width="71" x="1" y="1"/><g transform="translate(13 16)"><path d="m43.9003925 30.2807507c-2.4234841 1.2632658-14.9781891 6.4252497-17.651016 7.8185261-2.672827 1.3938104-4.1576715 1.3801953-6.2690767.3708107-2.1114051-1.0093846-15.47180242-6.4060283-17.87846792-7.556369-1.2029323-.5750369-1.83536609-1.0601075-1.83536609-1.5184818v-4.5904175s17.39339741-3.7865938 20.20157421-4.7938427c2.8079099-1.0075159 3.7820555-1.0438228 6.1716354-.1684533 2.3898469.8753695 16.6782053 3.4534249 19.0400211 4.3183828 0 0-.0010679 4.0997407-.0010679 4.5252787.000267.453836-.5446031.9517207-1.7782361 1.594566z" fill="#a41e11"/><path d="m43.9003925 25.6889985c-2.4234841 1.2627319-14.9781891 6.4252496-17.651016 7.8185261-2.672827 1.3938103-4.1576715 1.3801953-6.2690767.3708106-2.1116721-1.0088506-15.47180242-6.4065622-17.87846792-7.556369-2.4066655-1.1503407-2.45712138-1.942151-.09290289-2.8677095 2.36395152-.9260923 15.65093421-6.1390659 18.45937801-7.1465818 2.8079099-1.006982 3.7820555-1.0438228 6.1716354-.1681863 2.3898468.8753695 14.8695354 5.8427378 17.2310842 6.7076958 2.3620828.8657588 2.45285 1.5785483.0293659 2.8418141z" fill="#d82c20"/><path d="m43.9003925 22.7951267c-2.4234841 1.2632658-14.9781891 6.4252496-17.651016 7.81906-2.672827 1.3932765-4.1576715 1.3796614-6.2690767.3702768-2.1116721-1.0088507-15.47180242-6.4060283-17.87846792-7.5563691-1.2029323-.5750369-1.83536609-1.0595735-1.83536609-1.5179478v-4.5909514s17.39339741-3.7863269 20.20157421-4.7938428c2.8079099-1.0072489 3.7820555-1.0438227 6.1716354-.1684532 2.3898469.8753695 16.6782053 3.4528909 19.0400211 4.3181159 0 0-.0010679 4.0997406-.0010679 4.5258125.000267.453569-.5446031.9514538-1.7782361 1.5942991z" fill="#a41e11"/><path d="m43.9003925 18.2033745c-2.4234841 1.2632658-14.9781891 6.4252496-17.651016 7.8190599-2.672827 1.3932765-4.1576715 1.3796614-6.2690767.3702768-2.1116721-1.0088507-15.47180242-6.4062953-17.87846792-7.556369-2.4066655-1.1500738-2.45712138-1.9418841-.09290289-2.8679765 2.36395152-.9255584 15.65093421-6.13879897 18.45937801-7.14604789 2.8079099-1.00724891 3.7820555-1.04382275 6.1716354-.16845323 2.3898468.87536951 14.8695354 5.84247082 17.2310842 6.70769572 2.3620828.865492 2.45285 1.5785484.0293659 2.8418142z" fill="#d82c20"/><path d="m43.9003925 15.0318619c-2.4234841 1.2632657-14.9781891 6.4255165-17.651016 7.8193269-2.672827 1.3932765-4.1576715 1.3796614-6.2690767.3702768-2.1116721-1.0088507-15.47180242-6.4062953-17.87846792-7.5563691-1.2029323-.5750369-1.83536609-1.0598405-1.83536609-1.5179478v-4.59095141s17.39339741-3.78632688 20.20157421-4.79357579c2.8079099-1.00751587 3.7820555-1.04382275 6.1716354-.16845323 2.3898469.87536951 16.6782053 3.45289091 19.0400211 4.31811585 0 0-.0010679 4.09974068-.0010679 4.52554558.000267.4533021-.5446031.9511868-1.7782361 1.5940322z" fill="#a41e11"/><path d="m43.9003925 10.4401096c-2.4234841 1.2632658-14.9781891 6.4255166-17.651016 7.81906-2.672827 1.3932764-4.1576715 1.3796614-6.2690767.3705437-2.1114051-1.0091176-15.47180242-6.4062953-17.87846792-7.556369-2.4066655-1.15007379-2.45712138-1.94215106-.09290289-2.86797645 2.36395152-.9258254 15.65093421-6.13853206 18.45937801-7.14604793 2.8079099-1.00751588 3.7820555-1.04382276 6.1716354-.16818628 2.3898468.87536952 14.8695354 5.84247082 17.2310842 6.70769577 2.3620828.86495798 2.45285 1.57828135.0293659 2.84128019z" fill="#d82c20"/><g fill="#fff"><path d="m28.9238052 6.01921324-3.9350249.40845238-.8809757 2.11968098-1.4229093-2.36528633-4.543699-.40845238 3.3904217-1.22268752-1.0171265-1.87674526 3.1741822 1.24137489 2.9926478-.97975179-.8088959 1.94081621z"/><path d="m23.8728777 16.3026026-7.344134-3.0460403 10.5236555-1.6151222z"/><ellipse cx="13.690934" cy="9.377599" rx="5.62463" ry="2.180281"/></g><path d="m33.5742892 6.59852152 6.2282314 2.46139278-6.2228922 2.4587232z" fill="#7a0c00"/><path d="m26.6839912 9.32420701 6.890298-2.72568549.0053392 4.92011598-.6754147.2642927z" fill="#ad2115"/></g></g></svg>